<?xml version="1.0" encoding="UTF-8" standalone="no"?>
<!DOCTYPE svg PUBLIC "-//W3C//DTD SVG 1.1//EN"
 "http://www.w3.org/Graphics/SVG/1.1/DTD/svg11.dtd">
<!-- Generated by graphviz version 2.38.0 (20140413.2041)
 -->
<!-- Title: G Pages: 1 -->
<svg width="401pt" height="744pt"
 viewBox="0.00 0.00 401.00 744.00" xmlns="http://www.w3.org/2000/svg" xmlns:xlink="http://www.w3.org/1999/xlink">
<g id="graph0" class="graph" transform="scale(1 1) rotate(0) translate(4 740)">
<title>G</title>
<polygon fill="white" stroke="none" points="-4,4 -4,-740 397,-740 397,4 -4,4"/>
<g id="clust1" class="cluster"><title>cluster_Global</title>
<path fill="none" stroke="gray" d="M20,-8C20,-8 373,-8 373,-8 379,-8 385,-14 385,-20 385,-20 385,-716 385,-716 385,-722 379,-728 373,-728 373,-728 20,-728 20,-728 14,-728 8,-722 8,-716 8,-716 8,-20 8,-20 8,-14 14,-8 20,-8"/>
<text text-anchor="middle" x="196.5" y="-715.2" font-family="Times New Roman,serif" font-size="11.00" fill="gray">Global</text>
</g>
<g id="clust2" class="cluster"><title>cluster_\MapPlatform</title>
<path fill="none" stroke="gray" d="M28,-16C28,-16 365,-16 365,-16 371,-16 377,-22 377,-28 377,-28 377,-688 377,-688 377,-694 371,-700 365,-700 365,-700 28,-700 28,-700 22,-700 16,-694 16,-688 16,-688 16,-28 16,-28 16,-22 22,-16 28,-16"/>
<text text-anchor="middle" x="196.5" y="-687.2" font-family="Times New Roman,serif" font-size="11.00" fill="gray">MapPlatform</text>
</g>
<g id="clust3" class="cluster"><title>cluster_\MapPlatform\Core</title>
<path fill="none" stroke="gray" d="M221,-302C221,-302 347,-302 347,-302 353,-302 359,-308 359,-314 359,-314 359,-660 359,-660 359,-666 353,-672 347,-672 347,-672 221,-672 221,-672 215,-672 209,-666 209,-660 209,-660 209,-314 209,-314 209,-308 215,-302 221,-302"/>
<text text-anchor="middle" x="284" y="-659.2" font-family="Times New Roman,serif" font-size="11.00" fill="gray">Core</text>
</g>
<g id="clust4" class="cluster"><title>cluster_\MapPlatform\Core\Utils</title>
<path fill="none" stroke="gray" d="M229,-410C229,-410 339,-410 339,-410 345,-410 351,-416 351,-422 351,-422 351,-632 351,-632 351,-638 345,-644 339,-644 339,-644 229,-644 229,-644 223,-644 217,-638 217,-632 217,-632 217,-422 217,-422 217,-416 223,-410 229,-410"/>
<text text-anchor="middle" x="284" y="-631.2" font-family="Times New Roman,serif" font-size="11.00" fill="gray">Utils</text>
</g>
<g id="clust5" class="cluster"><title>cluster_\MapPlatform\AbstractClasses</title>
<path fill="none" stroke="gray" d="M36,-113C36,-113 139,-113 139,-113 145,-113 151,-119 151,-125 151,-125 151,-227 151,-227 151,-233 145,-239 139,-239 139,-239 36,-239 36,-239 30,-239 24,-233 24,-227 24,-227 24,-125 24,-125 24,-119 30,-113 36,-113"/>
<text text-anchor="middle" x="87.5" y="-226.2" font-family="Times New Roman,serif" font-size="11.00" fill="gray">AbstractClasses</text>
</g>
<g id="clust6" class="cluster"><title>cluster_\MapPlatform\Controllers</title>
<path fill="none" stroke="gray" d="M211,-24C211,-24 357,-24 357,-24 363,-24 369,-30 369,-36 369,-36 369,-282 369,-282 369,-288 363,-294 357,-294 357,-294 211,-294 211,-294 205,-294 199,-288 199,-282 199,-282 199,-36 199,-36 199,-30 205,-24 211,-24"/>
<text text-anchor="middle" x="284" y="-281.2" font-family="Times New Roman,serif" font-size="11.00" fill="gray">Controllers</text>
</g>
<g id="clust7" class="cluster"><title>cluster_\MapPlatform\Controllers\Api</title>
<path fill="none" stroke="gray" d="M219,-32C219,-32 349,-32 349,-32 355,-32 361,-38 361,-44 361,-44 361,-254 361,-254 361,-260 355,-266 349,-266 349,-266 219,-266 219,-266 213,-266 207,-260 207,-254 207,-254 207,-44 207,-44 207,-38 213,-32 219,-32"/>
<text text-anchor="middle" x="284" y="-253.2" font-family="Times New Roman,serif" font-size="11.00" fill="gray">Api</text>
</g>
<!-- \\MapPlatform\\Core\\Utils\\FormattingUtils -->
<g id="node1" class="node"><title>\\MapPlatform\\Core\\Utils\\FormattingUtils</title>
<polygon fill="none" stroke="black" points="343,-616 225,-616 225,-580 343,-580 343,-616"/>
<text text-anchor="middle" x="284" y="-595.2" font-family="Courier,monospace" font-size="11.00">FormattingUtils</text>
</g>
<!-- \\MapPlatform\\Core\\Utils\\MiscUtils -->
<g id="node2" class="node"><title>\\MapPlatform\\Core\\Utils\\MiscUtils</title>
<polygon fill="none" stroke="black" points="322.5,-562 245.5,-562 245.5,-526 322.5,-526 322.5,-562"/>
<text text-anchor="middle" x="284" y="-541.2" font-family="Courier,monospace" font-size="11.00">MiscUtils</text>
</g>
<!-- \\MapPlatform\\Core\\Utils\\RenderUtils -->
<g id="node3" class="node"><title>\\MapPlatform\\Core\\Utils\\RenderUtils</title>
<polygon fill="none" stroke="black" points="329.5,-508 238.5,-508 238.5,-472 329.5,-472 329.5,-508"/>
<text text-anchor="middle" x="284" y="-487.2" font-family="Courier,monospace" font-size="11.00">RenderUtils</text>
</g>
<!-- \\MapPlatform\\Core\\Utils\\FileUtils -->
<g id="node4" class="node"><title>\\MapPlatform\\Core\\Utils\\FileUtils</title>
<polygon fill="none" stroke="black" points="322.5,-454 245.5,-454 245.5,-418 322.5,-418 322.5,-454"/>
<text text-anchor="middle" x="284" y="-433.2" font-family="Courier,monospace" font-size="11.00">FileUtils</text>
</g>
<!-- \\MapPlatform\\Core\\SQLConnector -->
<g id="node5" class="node"><title>\\MapPlatform\\Core\\SQLConnector</title>
<polygon fill="none" stroke="black" points="333,-400 235,-400 235,-364 333,-364 333,-400"/>
<text text-anchor="middle" x="284" y="-379.2" font-family="Courier,monospace" font-size="11.00">SQLConnector</text>
</g>
<!-- \\MapPlatform\\Core\\Security -->
<g id="node6" class="node"><title>\\MapPlatform\\Core\\Security</title>
<polygon fill="none" stroke="black" points="319.5,-346 248.5,-346 248.5,-310 319.5,-310 319.5,-346"/>
<text text-anchor="middle" x="284" y="-325.2" font-family="Courier,monospace" font-size="11.00">Security</text>
</g>
<!-- \\MapPlatform\\AbstractClasses\\PageController -->
<g id="node7" class="node"><title>\\MapPlatform\\AbstractClasses\\PageController</title>
<polygon fill="none" stroke="black" points="143,-211 32,-211 32,-175 143,-175 143,-211"/>
<text text-anchor="start" x="53.5" y="-196.2" font-family="Courier,monospace" font-size="11.00">«abstract»</text>
<text text-anchor="start" x="40" y="-184.2" font-family="Courier,monospace" font-size="11.00">PageController</text>
</g>
<!-- \\MapPlatform\\AbstractClasses\\ApiController -->
<g id="node8" class="node"><title>\\MapPlatform\\AbstractClasses\\ApiController</title>
<polygon fill="none" stroke="black" points="139.5,-157 35.5,-157 35.5,-121 139.5,-121 139.5,-157"/>
<text text-anchor="start" x="53.5" y="-142.2" font-family="Courier,monospace" font-size="11.00">«abstract»</text>
<text text-anchor="start" x="43.5" y="-130.2" font-family="Courier,monospace" font-size="11.00">ApiController</text>
</g>
<!-- \\MapPlatform\\Controllers\\Api\\RatingController -->
<g id="node9" class="node"><title>\\MapPlatform\\Controllers\\Api\\RatingController</title>
<polygon fill="none" stroke="black" points="346.5,-238 221.5,-238 221.5,-202 346.5,-202 346.5,-238"/>
<text text-anchor="middle" x="284" y="-217.2" font-family="Courier,monospace" font-size="11.00">RatingController</text>
</g>
<!-- \\MapPlatform\\Controllers\\Api\\RatingController&#45;&gt;\\MapPlatform\\AbstractClasses\\ApiController -->
<g id="edge1" class="edge"><title>\\MapPlatform\\Controllers\\Api\\RatingController&#45;&gt;\\MapPlatform\\AbstractClasses\\ApiController</title>
<path fill="none" stroke="black" d="M221.896,-201.962C214.1,-199.194 206.3,-196.187 199,-193 176.568,-183.205 172.932,-176.868 151,-166 147.737,-164.383 144.354,-162.764 140.927,-161.167"/>
<polygon fill="none" stroke="black" points="142.356,-157.972 131.805,-157.007 139.452,-164.341 142.356,-157.972"/>
</g>
<!-- \\MapPlatform\\Controllers\\Api\\MapController -->
<g id="node10" class="node"><title>\\MapPlatform\\Controllers\\Api\\MapController</title>
<polygon fill="none" stroke="black" points="336,-184 232,-184 232,-148 336,-148 336,-184"/>
<text text-anchor="middle" x="284" y="-163.2" font-family="Courier,monospace" font-size="11.00">MapController</text>
</g>
<!-- \\MapPlatform\\Controllers\\Api\\MapController&#45;&gt;\\MapPlatform\\AbstractClasses\\ApiController -->
<g id="edge2" class="edge"><title>\\MapPlatform\\Controllers\\Api\\MapController&#45;&gt;\\MapPlatform\\AbstractClasses\\ApiController</title>
<path fill="none" stroke="black" d="M231.897,-158.906C206.647,-155.401 175.994,-151.146 149.52,-147.471"/>
<polygon fill="none" stroke="black" points="149.985,-144.002 139.599,-146.093 149.022,-150.935 149.985,-144.002"/>
</g>
<!-- \\MapPlatform\\Controllers\\Api\\MiscController -->
<g id="node11" class="node"><title>\\MapPlatform\\Controllers\\Api\\MiscController</title>
<polygon fill="none" stroke="black" points="339.5,-130 228.5,-130 228.5,-94 339.5,-94 339.5,-130"/>
<text text-anchor="middle" x="284" y="-109.2" font-family="Courier,monospace" font-size="11.00">MiscController</text>
</g>
<!-- \\MapPlatform\\Controllers\\Api\\MiscController&#45;&gt;\\MapPlatform\\AbstractClasses\\ApiController -->
<g id="edge3" class="edge"><title>\\MapPlatform\\Controllers\\Api\\MiscController&#45;&gt;\\MapPlatform\\AbstractClasses\\ApiController</title>
<path fill="none" stroke="black" d="M228.303,-119.593C203.911,-122.979 175.07,-126.983 149.938,-130.471"/>
<polygon fill="none" stroke="black" points="149.206,-127.039 139.782,-131.881 150.169,-133.973 149.206,-127.039"/>
</g>
<!-- \\MapPlatform\\Controllers\\Api\\DownloadController -->
<g id="node12" class="node"><title>\\MapPlatform\\Controllers\\Api\\DownloadController</title>
<polygon fill="none" stroke="black" points="353,-76 215,-76 215,-40 353,-40 353,-76"/>
<text text-anchor="middle" x="284" y="-55.2" font-family="Courier,monospace" font-size="11.00">DownloadController</text>
</g>
<!-- \\MapPlatform\\Controllers\\Api\\DownloadController&#45;&gt;\\MapPlatform\\AbstractClasses\\ApiController -->
<g id="edge4" class="edge"><title>\\MapPlatform\\Controllers\\Api\\DownloadController&#45;&gt;\\MapPlatform\\AbstractClasses\\ApiController</title>
<path fill="none" stroke="black" d="M222.968,-76.132C214.847,-78.923 206.673,-81.9105 199,-85 176.155,-94.1981 151.466,-106.069 131.231,-116.337"/>
<polygon fill="none" stroke="black" points="129.575,-113.253 122.27,-120.927 132.766,-119.483 129.575,-113.253"/>
</g>
</g>
</svg>
