<?xml version="1.0" encoding="UTF-8" standalone="no"?>
<!DOCTYPE svg PUBLIC "-//W3C//DTD SVG 1.1//EN"
 "http://www.w3.org/Graphics/SVG/1.1/DTD/svg11.dtd">
<!-- Generated by graphviz version 2.38.0 (20140413.2041)
 -->
<!-- Title: G Pages: 1 -->
<svg width="322pt" height="1498pt"
 viewBox="0.00 0.00 322.49 1498.00" xmlns="http://www.w3.org/2000/svg" xmlns:xlink="http://www.w3.org/1999/xlink">
<g id="graph0" class="graph" transform="scale(1 1) rotate(0) translate(4 1494)">
<title>G</title>
<polygon fill="white" stroke="none" points="-4,4 -4,-1494 318.493,-1494 318.493,4 -4,4"/>
<g id="clust1" class="cluster"><title>cluster_Global</title>
<path fill="none" stroke="gray" d="M136.493,-8C136.493,-8 294.493,-8 294.493,-8 300.493,-8 306.493,-14 306.493,-20 306.493,-20 306.493,-1470 306.493,-1470 306.493,-1476 300.493,-1482 294.493,-1482 294.493,-1482 136.493,-1482 136.493,-1482 130.493,-1482 124.493,-1476 124.493,-1470 124.493,-1470 124.493,-20 124.493,-20 124.493,-14 130.493,-8 136.493,-8"/>
<text text-anchor="middle" x="215.493" y="-1469.2" font-family="Times New Roman,serif" font-size="11.00" fill="gray">Global</text>
</g>
<g id="clust6" class="cluster"><title>cluster_\ManagementTools</title>
<path fill="none" stroke="gray" d="M144.493,-1202C144.493,-1202 286.493,-1202 286.493,-1202 292.493,-1202 298.493,-1208 298.493,-1214 298.493,-1214 298.493,-1442 298.493,-1442 298.493,-1448 292.493,-1454 286.493,-1454 286.493,-1454 144.493,-1454 144.493,-1454 138.493,-1454 132.493,-1448 132.493,-1442 132.493,-1442 132.493,-1214 132.493,-1214 132.493,-1208 138.493,-1202 144.493,-1202"/>
<text text-anchor="middle" x="215.493" y="-1441.2" font-family="Times New Roman,serif" font-size="11.00" fill="gray">ManagementTools</text>
</g>
<g id="clust7" class="cluster"><title>cluster_\ManagementTools\Core</title>
<path fill="none" stroke="gray" d="M152.493,-1210C152.493,-1210 278.493,-1210 278.493,-1210 284.493,-1210 290.493,-1216 290.493,-1222 290.493,-1222 290.493,-1414 290.493,-1414 290.493,-1420 284.493,-1426 278.493,-1426 278.493,-1426 152.493,-1426 152.493,-1426 146.493,-1426 140.493,-1420 140.493,-1414 140.493,-1414 140.493,-1222 140.493,-1222 140.493,-1216 146.493,-1210 152.493,-1210"/>
<text text-anchor="middle" x="215.493" y="-1413.2" font-family="Times New Roman,serif" font-size="11.00" fill="gray">Core</text>
</g>
<g id="clust8" class="cluster"><title>cluster_\ManagementTools\Core\Utils</title>
<path fill="none" stroke="gray" d="M160.493,-1218C160.493,-1218 270.493,-1218 270.493,-1218 276.493,-1218 282.493,-1224 282.493,-1230 282.493,-1230 282.493,-1386 282.493,-1386 282.493,-1392 276.493,-1398 270.493,-1398 270.493,-1398 160.493,-1398 160.493,-1398 154.493,-1398 148.493,-1392 148.493,-1386 148.493,-1386 148.493,-1230 148.493,-1230 148.493,-1224 154.493,-1218 160.493,-1218"/>
<text text-anchor="middle" x="215.493" y="-1385.2" font-family="Times New Roman,serif" font-size="11.00" fill="gray">Utils</text>
</g>
<g id="clust2" class="cluster"><title>cluster_\App</title>
<path fill="none" stroke="gray" d="M160.493,-906C160.493,-906 270.493,-906 270.493,-906 276.493,-906 282.493,-912 282.493,-918 282.493,-918 282.493,-1182 282.493,-1182 282.493,-1188 276.493,-1194 270.493,-1194 270.493,-1194 160.493,-1194 160.493,-1194 154.493,-1194 148.493,-1188 148.493,-1182 148.493,-1182 148.493,-918 148.493,-918 148.493,-912 154.493,-906 160.493,-906"/>
<text text-anchor="middle" x="215.493" y="-1181.2" font-family="Times New Roman,serif" font-size="11.00" fill="gray">App</text>
</g>
<g id="clust3" class="cluster"><title>cluster_\Data</title>
<path fill="none" stroke="gray" d="M183.993,-826C183.993,-826 246.993,-826 246.993,-826 252.993,-826 258.993,-832 258.993,-838 258.993,-838 258.993,-886 258.993,-886 258.993,-892 252.993,-898 246.993,-898 246.993,-898 183.993,-898 183.993,-898 177.993,-898 171.993,-892 171.993,-886 171.993,-886 171.993,-838 171.993,-838 171.993,-832 177.993,-826 183.993,-826"/>
<text text-anchor="middle" x="215.493" y="-885.2" font-family="Times New Roman,serif" font-size="11.00" fill="gray">Data</text>
</g>
<g id="clust4" class="cluster"><title>cluster_\Functions</title>
<path fill="none" stroke="gray" d="M155.993,-16C155.993,-16 274.993,-16 274.993,-16 280.993,-16 286.993,-22 286.993,-28 286.993,-28 286.993,-806 286.993,-806 286.993,-812 280.993,-818 274.993,-818 274.993,-818 155.993,-818 155.993,-818 149.993,-818 143.993,-812 143.993,-806 143.993,-806 143.993,-28 143.993,-28 143.993,-22 149.993,-16 155.993,-16"/>
<text text-anchor="middle" x="215.493" y="-805.2" font-family="Times New Roman,serif" font-size="11.00" fill="gray">Functions</text>
</g>
<g id="clust5" class="cluster"><title>cluster_\Functions\Views</title>
<path fill="none" stroke="gray" d="M163.993,-286C163.993,-286 266.993,-286 266.993,-286 272.993,-286 278.993,-292 278.993,-298 278.993,-298 278.993,-778 278.993,-778 278.993,-784 272.993,-790 266.993,-790 266.993,-790 163.993,-790 163.993,-790 157.993,-790 151.993,-784 151.993,-778 151.993,-778 151.993,-298 151.993,-298 151.993,-292 157.993,-286 163.993,-286"/>
<text text-anchor="middle" x="215.493" y="-777.2" font-family="Times New Roman,serif" font-size="11.00" fill="gray">Views</text>
</g>
<!-- \\App\\LoggerException -->
<g id="node1" class="node"><title>\\App\\LoggerException</title>
<polygon fill="none" stroke="black" points="274.493,-1166 156.493,-1166 156.493,-1130 274.493,-1130 274.493,-1166"/>
<text text-anchor="middle" x="215.493" y="-1145.2" font-family="Courier,monospace" font-size="11.00">LoggerException</text>
</g>
<!-- \\Exception -->
<g id="node24" class="node"><title>\\Exception</title>
<ellipse fill="none" stroke="black" cx="42.2463" cy="-1148" rx="42.4939" ry="18"/>
<text text-anchor="middle" x="42.2463" y="-1144.3" font-family="Times New Roman,serif" font-size="14.00" fill="gray">xception</text>
</g>
<!-- \\App\\LoggerException&#45;&gt;\\Exception -->
<g id="edge1" class="edge"><title>\\App\\LoggerException&#45;&gt;\\Exception</title>
<path fill="none" stroke="black" d="M156.038,-1148C136.162,-1148 114.108,-1148 94.8105,-1148"/>
<polygon fill="none" stroke="black" points="94.7019,-1144.5 84.7019,-1148 94.7019,-1151.5 94.7019,-1144.5"/>
</g>
<!-- \\App\\Logger -->
<g id="node2" class="node"><title>\\App\\Logger</title>
<polygon fill="none" stroke="black" points="243.993,-1112 186.993,-1112 186.993,-1076 243.993,-1076 243.993,-1112"/>
<text text-anchor="middle" x="215.493" y="-1091.2" font-family="Courier,monospace" font-size="11.00">Logger</text>
</g>
<!-- \\App\\Renderer -->
<g id="node3" class="node"><title>\\App\\Renderer</title>
<polygon fill="none" stroke="black" points="250.993,-1058 179.993,-1058 179.993,-1022 250.993,-1022 250.993,-1058"/>
<text text-anchor="middle" x="215.493" y="-1037.2" font-family="Courier,monospace" font-size="11.00">Renderer</text>
</g>
<!-- \\App\\Security -->
<g id="node4" class="node"><title>\\App\\Security</title>
<polygon fill="none" stroke="black" points="250.993,-1004 179.993,-1004 179.993,-968 250.993,-968 250.993,-1004"/>
<text text-anchor="middle" x="215.493" y="-983.2" font-family="Courier,monospace" font-size="11.00">Security</text>
</g>
<!-- \\App\\Utils -->
<g id="node5" class="node"><title>\\App\\Utils</title>
<polygon fill="none" stroke="black" points="242.493,-950 188.493,-950 188.493,-914 242.493,-914 242.493,-950"/>
<text text-anchor="middle" x="215.493" y="-929.2" font-family="Courier,monospace" font-size="11.00">Utils</text>
</g>
<!-- \\Data\\Database -->
<g id="node6" class="node"><title>\\Data\\Database</title>
<polygon fill="none" stroke="black" points="250.993,-870 179.993,-870 179.993,-834 250.993,-834 250.993,-870"/>
<text text-anchor="middle" x="215.493" y="-849.2" font-family="Courier,monospace" font-size="11.00">Database</text>
</g>
<!-- \\Functions\\Views\\About -->
<g id="node7" class="node"><title>\\Functions\\Views\\About</title>
<polygon fill="none" stroke="black" points="242.493,-762 188.493,-762 188.493,-726 242.493,-726 242.493,-762"/>
<text text-anchor="middle" x="215.493" y="-741.2" font-family="Courier,monospace" font-size="11.00">About</text>
</g>
<!-- \\Functions\\Views\\Dashboard -->
<g id="node8" class="node"><title>\\Functions\\Views\\Dashboard</title>
<polygon fill="none" stroke="black" points="253.993,-708 176.993,-708 176.993,-672 253.993,-672 253.993,-708"/>
<text text-anchor="middle" x="215.493" y="-687.2" font-family="Courier,monospace" font-size="11.00">Dashboard</text>
</g>
<!-- \\Functions\\Views\\Home -->
<g id="node9" class="node"><title>\\Functions\\Views\\Home</title>
<polygon fill="none" stroke="black" points="242.493,-654 188.493,-654 188.493,-618 242.493,-618 242.493,-654"/>
<text text-anchor="middle" x="215.493" y="-633.2" font-family="Courier,monospace" font-size="11.00">Home</text>
</g>
<!-- \\Functions\\Views\\MapDetails -->
<g id="node10" class="node"><title>\\Functions\\Views\\MapDetails</title>
<polygon fill="none" stroke="black" points="257.493,-600 173.493,-600 173.493,-564 257.493,-564 257.493,-600"/>
<text text-anchor="middle" x="215.493" y="-579.2" font-family="Courier,monospace" font-size="11.00">MapDetails</text>
</g>
<!-- \\Functions\\Views\\NewMap -->
<g id="node11" class="node"><title>\\Functions\\Views\\NewMap</title>
<polygon fill="none" stroke="black" points="243.993,-546 186.993,-546 186.993,-510 243.993,-510 243.993,-546"/>
<text text-anchor="middle" x="215.493" y="-525.2" font-family="Courier,monospace" font-size="11.00">NewMap</text>
</g>
<!-- \\Functions\\Views\\NewMapRevision -->
<g id="node12" class="node"><title>\\Functions\\Views\\NewMapRevision</title>
<polygon fill="none" stroke="black" points="270.993,-492 159.993,-492 159.993,-456 270.993,-456 270.993,-492"/>
<text text-anchor="middle" x="215.493" y="-471.2" font-family="Courier,monospace" font-size="11.00">NewMapRevision</text>
</g>
<!-- \\Functions\\Views\\Profile -->
<g id="node13" class="node"><title>\\Functions\\Views\\Profile</title>
<polygon fill="none" stroke="black" points="247.493,-438 183.493,-438 183.493,-402 247.493,-402 247.493,-438"/>
<text text-anchor="middle" x="215.493" y="-417.2" font-family="Courier,monospace" font-size="11.00">Profile</text>
</g>
<!-- \\Functions\\Views\\Result -->
<g id="node14" class="node"><title>\\Functions\\Views\\Result</title>
<polygon fill="none" stroke="black" points="243.993,-384 186.993,-384 186.993,-348 243.993,-348 243.993,-384"/>
<text text-anchor="middle" x="215.493" y="-363.2" font-family="Courier,monospace" font-size="11.00">Result</text>
</g>
<!-- \\Functions\\Views\\Settings -->
<g id="node15" class="node"><title>\\Functions\\Views\\Settings</title>
<polygon fill="none" stroke="black" points="250.993,-330 179.993,-330 179.993,-294 250.993,-294 250.993,-330"/>
<text text-anchor="middle" x="215.493" y="-309.2" font-family="Courier,monospace" font-size="11.00">Settings</text>
</g>
<!-- \\Functions\\Download -->
<g id="node16" class="node"><title>\\Functions\\Download</title>
<polygon fill="none" stroke="black" points="250.993,-276 179.993,-276 179.993,-240 250.993,-240 250.993,-276"/>
<text text-anchor="middle" x="215.493" y="-255.2" font-family="Courier,monospace" font-size="11.00">Download</text>
</g>
<!-- \\Functions\\MapInfo -->
<g id="node17" class="node"><title>\\Functions\\MapInfo</title>
<polygon fill="none" stroke="black" points="247.493,-222 183.493,-222 183.493,-186 247.493,-186 247.493,-222"/>
<text text-anchor="middle" x="215.493" y="-201.2" font-family="Courier,monospace" font-size="11.00">MapInfo</text>
</g>
<!-- \\Functions\\Rate -->
<g id="node18" class="node"><title>\\Functions\\Rate</title>
<polygon fill="none" stroke="black" points="242.493,-168 188.493,-168 188.493,-132 242.493,-132 242.493,-168"/>
<text text-anchor="middle" x="215.493" y="-147.2" font-family="Courier,monospace" font-size="11.00">Rate</text>
</g>
<!-- \\Functions\\Upload -->
<g id="node19" class="node"><title>\\Functions\\Upload</title>
<polygon fill="none" stroke="black" points="243.993,-114 186.993,-114 186.993,-78 243.993,-78 243.993,-114"/>
<text text-anchor="middle" x="215.493" y="-93.2" font-family="Courier,monospace" font-size="11.00">Upload</text>
</g>
<!-- \\Functions\\User -->
<g id="node20" class="node"><title>\\Functions\\User</title>
<polygon fill="none" stroke="black" points="242.493,-60 188.493,-60 188.493,-24 242.493,-24 242.493,-60"/>
<text text-anchor="middle" x="215.493" y="-39.2" font-family="Courier,monospace" font-size="11.00">User</text>
</g>
<!-- \\ManagementTools\\Core\\Utils\\FileUtils -->
<g id="node21" class="node"><title>\\ManagementTools\\Core\\Utils\\FileUtils</title>
<polygon fill="none" stroke="black" points="253.993,-1370 176.993,-1370 176.993,-1334 253.993,-1334 253.993,-1370"/>
<text text-anchor="middle" x="215.493" y="-1349.2" font-family="Courier,monospace" font-size="11.00">FileUtils</text>
</g>
<!-- \\ManagementTools\\Core\\Utils\\FormattingUtils -->
<g id="node22" class="node"><title>\\ManagementTools\\Core\\Utils\\FormattingUtils</title>
<polygon fill="none" stroke="black" points="274.493,-1316 156.493,-1316 156.493,-1280 274.493,-1280 274.493,-1316"/>
<text text-anchor="middle" x="215.493" y="-1295.2" font-family="Courier,monospace" font-size="11.00">FormattingUtils</text>
</g>
<!-- \\ManagementTools\\Core\\Utils\\RenderUtils -->
<g id="node23" class="node"><title>\\ManagementTools\\Core\\Utils\\RenderUtils</title>
<polygon fill="none" stroke="black" points="260.993,-1262 169.993,-1262 169.993,-1226 260.993,-1226 260.993,-1262"/>
<text text-anchor="middle" x="215.493" y="-1241.2" font-family="Courier,monospace" font-size="11.00">RenderUtils</text>
</g>
</g>
</svg>
